<svg width="960" height="500">
<style>
	path {
    fill: none;
}

text {
    font-family: "Avenir Next", "Helvetica Neue", Helvetica, Arial, sans-serif;
    font-size: 12px;
    letter-spacing: 1.5px;
}

.tick text {
    font-size: 10px;
    font-weight: "Normal";
}


.axis .domain, .guiding-line, .center-polygon {
    stroke: #C7B3A4;
    stroke-width: 1px;
}


.axis-text, .tick text {
    fill: #90715A;
    opacity: 1;
}

.axis-text {
    font-weight: 600;
}

.center-polygon {
    fill: white;
}

.food-polygon {
    fill-opacity: 0.2;
    stroke-opacity: 0.9;
    stroke-width: 1.5;
}

.endpoint {
    fill-opacity: 1;
}

.food-points {
    r: 3;
    opacity: 1;
}
</style>
<g transform="translate(30,30)"><g class="spider-chart" transform="translate(450,220)"><g><path class="guiding-line" d="M0,-30L25.980762113533157,-15.000000000000004L25.980762113533164,14.999999999999993L3.67394039744206e-15,30L-25.980762113533153,15.000000000000014L-25.98076211353317,-14.999999999999979L0,-30"></path></g><g><path class="guiding-line" d="M0,-68L58.88972745734183,-34.00000000000001L58.88972745734184,33.999999999999986L8.327598234202001e-15,68L-58.889727457341806,34.00000000000003L-58.889727457341856,-33.99999999999995L0,-68"></path></g><g><path class="guiding-line" d="M0,-106L91.7986928011505,-53.000000000000014L91.79869280115051,52.99999999999998L1.2981256070961945e-14,106L-91.79869280115047,53.00000000000005L-91.79869280115054,-52.99999999999992L0,-106"></path></g><g><path class="guiding-line" d="M0,-144L124.70765814495915,-72.00000000000001L124.7076581449592,71.99999999999997L1.7634913907721887e-14,144L-124.70765814495913,72.00000000000006L-124.70765814495923,-71.9999999999999L0,-144"></path></g><g><path class="guiding-line" d="M0,-182L157.61662348876783,-91.00000000000001L157.61662348876786,90.99999999999996L2.228857174448183e-14,182L-157.61662348876777,91.00000000000009L-157.6166234887679,-90.99999999999987L0,-182"></path></g><g><path class="guiding-line" d="M0,-220L190.5255888325765,-110.00000000000003L190.52558883257655,109.99999999999996L2.694222958124177e-14,220L-190.52558883257643,110.0000000000001L-190.5255888325766,-109.99999999999984L0,-220"></path></g><g class="axis" transform="rotate(180)" fill="none" font-size="10" font-family="sans-serif" text-anchor="end"><path class="domain" stroke="#C7B3A4" d="M0,30.5H0.5V220.5H0"></path><g class="tick" opacity="1" transform="translate(0,30)"><line stroke="#000" x2="0" y1="0.5" y2="0.5"></line><text fill="#000" x="-3" y="0.5" dy="0.32em" class="tick-text" transform="rotate(180), translate(-3, -3)">0</text></g><g class="tick" opacity="1" transform="translate(0,68)"><line stroke="#000" x2="0" y1="0.5" y2="0.5"></line><text fill="#000" x="-3" y="0.5" dy="0.32em" class="tick-text" transform="rotate(180), translate(-3, -3)">20</text></g><g class="tick" opacity="1" transform="translate(0,106)"><line stroke="#000" x2="0" y1="0.5" y2="0.5"></line><text fill="#000" x="-3" y="0.5" dy="0.32em" class="tick-text" transform="rotate(180), translate(-3, -3)">40</text></g><g class="tick" opacity="1" transform="translate(0,144)"><line stroke="#000" x2="0" y1="0.5" y2="0.5"></line><text fill="#000" x="-3" y="0.5" dy="0.32em" class="tick-text" transform="rotate(180), translate(-3, -3)">60</text></g><g class="tick" opacity="1" transform="translate(0,182)"><line stroke="#000" x2="0" y1="0.5" y2="0.5"></line><text fill="#000" x="-3" y="0.5" dy="0.32em" class="tick-text" transform="rotate(180), translate(-3, -3)">80</text></g><g class="tick" opacity="1" transform="translate(0,220)"><line stroke="#000" x2="0" y1="0.5" y2="0.5"></line><text fill="#000" x="-3" y="0.5" dy="0.32em" class="tick-text" transform="rotate(180), translate(-3, -3)">100</text></g><text class="axis-text" y="235" transform="rotate(-180,0,235)" text-anchor="middle">STARCH</text></g><g class="axis" transform="rotate(240)" fill="none" font-size="10" font-family="sans-serif" text-anchor="end"><path class="domain" stroke="#C7B3A4" d="M0,30.5H0.5V220.5H0"></path><text class="axis-text" y="235" transform="rotate(-240,0,235)" text-anchor="start">SUGARS</text></g><g class="axis" transform="rotate(300)" fill="none" font-size="10" font-family="sans-serif" text-anchor="end"><path class="domain" stroke="#C7B3A4" d="M0,30.5H0.5V220.5H0"></path><text class="axis-text" y="235" transform="rotate(-300,0,235)" text-anchor="start">FIBRES</text></g><g class="axis" transform="rotate(0)" fill="none" font-size="10" font-family="sans-serif" text-anchor="end"><path class="domain" stroke="#C7B3A4" d="M0,30.5H0.5V220.5H0"></path><text class="axis-text" y="235" transform="rotate(0,0,235)" text-anchor="middle">FAT</text></g><g class="axis" transform="rotate(59.99999999999997)" fill="none" font-size="10" font-family="sans-serif" text-anchor="end"><path class="domain" stroke="#C7B3A4" d="M0,30.5H0.5V220.5H0"></path><text class="axis-text" y="235" transform="rotate(-59.99999999999997,0,235)" text-anchor="end">PROTEIN</text></g><g class="axis" transform="rotate(119.99999999999994)" fill="none" font-size="10" font-family="sans-serif" text-anchor="end"><path class="domain" stroke="#C7B3A4" d="M0,30.5H0.5V220.5H0"></path><text class="axis-text" y="235" transform="rotate(-119.99999999999994,0,235)" text-anchor="end">WATER</text></g><g id="food-polygons"><polygon class="food-polygon" stroke="#a6cee3" fill="#a6cee3" points="4.512823454857996e-15,-73.7,34.208003449485325,-19.75,30.917106915104466,17.849999999999994,7.072335265075965e-15,115.5,-55.59883092296094,32.100000000000016,-34.20800344948534,-19.749999999999975"></polygon><circle class="endpoint" cx="4.512823454857996e-15" cy="-73.7" r="4" fill="#a6cee3"></circle><circle class="endpoint" cx="34.208003449485325" cy="-19.75" r="4" fill="#a6cee3"></circle><circle class="endpoint" cx="30.917106915104466" cy="17.849999999999994" r="4" fill="#a6cee3"></circle><circle class="endpoint" cx="7.072335265075965e-15" cy="115.5" r="4" fill="#a6cee3"></circle><circle class="endpoint" cx="-55.59883092296094" cy="32.100000000000016" r="4" fill="#a6cee3"></circle><circle class="endpoint" cx="-34.20800344948534" cy="-19.749999999999975" r="4" fill="#a6cee3"></circle><polygon class="food-polygon" stroke="#a6cee3" fill="#a6cee3" points="1.9533116446400285e-15,-31.9,37.49889998386619,-21.65,42.4352447854375,24.499999999999993,7.072335265075965e-15,115.5,-58.88972745734182,34.00000000000002,-30.917106915104476,-17.84999999999998"></polygon><circle class="endpoint" cx="1.9533116446400285e-15" cy="-31.9" r="4" fill="#a6cee3"></circle><circle class="endpoint" cx="37.49889998386619" cy="-21.65" r="4" fill="#a6cee3"></circle><circle class="endpoint" cx="42.4352447854375" cy="24.499999999999993" r="4" fill="#a6cee3"></circle><circle class="endpoint" cx="7.072335265075965e-15" cy="115.5" r="4" fill="#a6cee3"></circle><circle class="endpoint" cx="-58.88972745734182" cy="34.00000000000002" r="4" fill="#a6cee3"></circle><circle class="endpoint" cx="-30.917106915104476" cy="-17.84999999999998" r="4" fill="#a6cee3"></circle><polygon class="food-polygon" stroke="#6a3d9a" fill="#6a3d9a" points="3.698433333425007e-15,-60.400000000000006,25.980762113533157,-15,25.98076211353316,14.999999999999995,4.047457671182002e-15,66.1,-53.95338265577052,31.150000000000023,-98.38048586991226,-56.799999999999926"></polygon><circle class="endpoint" cx="3.698433333425007e-15" cy="-60.400000000000006" r="4" fill="#6a3d9a"></circle><circle class="endpoint" cx="25.980762113533157" cy="-15" r="4" fill="#6a3d9a"></circle><circle class="endpoint" cx="25.98076211353316" cy="14.999999999999995" r="4" fill="#6a3d9a"></circle><circle class="endpoint" cx="4.047457671182002e-15" cy="66.1" r="4" fill="#6a3d9a"></circle><circle class="endpoint" cx="-53.95338265577052" cy="31.150000000000023" r="4" fill="#6a3d9a"></circle><circle class="endpoint" cx="-98.38048586991226" cy="-56.799999999999926" r="4" fill="#6a3d9a"></circle><polygon class="food-polygon" stroke="#33a02c" fill="#33a02c" points="3.3494089956680113e-15,-54.7,27.62621038072359,-15.95,25.98076211353316,14.999999999999995,4.047457671182002e-15,66.1,-49.017037854199216,28.30000000000002,-108.25317547305488,-62.49999999999992"></polygon><circle class="endpoint" cx="3.3494089956680113e-15" cy="-54.7" r="4" fill="#33a02c"></circle><circle class="endpoint" cx="27.62621038072359" cy="-15.95" r="4" fill="#33a02c"></circle><circle class="endpoint" cx="25.98076211353316" cy="14.999999999999995" r="4" fill="#33a02c"></circle><circle class="endpoint" cx="4.047457671182002e-15" cy="66.1" r="4" fill="#33a02c"></circle><circle class="endpoint" cx="-49.017037854199216" cy="28.30000000000002" r="4" fill="#33a02c"></circle><circle class="endpoint" cx="-108.25317547305488" cy="-62.49999999999992" r="4" fill="#33a02c"></circle><polygon class="food-polygon" stroke="#1f78b4" fill="#1f78b4" points="1.83697019872103e-15,-30,83.57145146519832,-48.25,25.98076211353316,14.999999999999995,4.861847792614993e-15,79.4,-65.47152052610355,37.800000000000026,-30.917106915104476,-17.84999999999998"></polygon><circle class="endpoint" cx="1.83697019872103e-15" cy="-30" r="4" fill="#1f78b4"></circle><circle class="endpoint" cx="83.57145146519832" cy="-48.25" r="4" fill="#1f78b4"></circle><circle class="endpoint" cx="25.98076211353316" cy="14.999999999999995" r="4" fill="#1f78b4"></circle><circle class="endpoint" cx="4.861847792614993e-15" cy="79.4" r="4" fill="#1f78b4"></circle><circle class="endpoint" cx="-65.47152052610355" cy="37.800000000000026" r="4" fill="#1f78b4"></circle><circle class="endpoint" cx="-30.917106915104476" cy="-17.84999999999998" r="4" fill="#1f78b4"></circle></g><g><polygon class="center-polygon" points="1.83697019872103e-15,-30,25.980762113533157,-15,25.98076211353316,14.999999999999995,1.83697019872103e-15,30,-25.980762113533153,15.00000000000001,-25.98076211353317,-14.999999999999982"></polygon></g><g id="polygon-points"><circle class="food-points" fill="#1f77b4" cx="4.512823454857996e-15" cy="-73.7"></circle><circle class="food-points" fill="#1f77b4" cx="34.208003449485325" cy="-19.75"></circle><circle class="food-points" fill="#1f77b4" cx="30.917106915104466" cy="17.849999999999994"></circle><circle class="food-points" fill="#1f77b4" cx="7.072335265075965e-15" cy="115.5"></circle><circle class="food-points" fill="#1f77b4" cx="-55.59883092296094" cy="32.100000000000016"></circle><circle class="food-points" fill="#1f77b4" cx="-34.20800344948534" cy="-19.749999999999975"></circle><circle class="food-points" fill="#ff7f0e" cx="1.9533116446400285e-15" cy="-31.9"></circle><circle class="food-points" fill="#ff7f0e" cx="37.49889998386619" cy="-21.65"></circle><circle class="food-points" fill="#ff7f0e" cx="42.4352447854375" cy="24.499999999999993"></circle><circle class="food-points" fill="#ff7f0e" cx="7.072335265075965e-15" cy="115.5"></circle><circle class="food-points" fill="#ff7f0e" cx="-58.88972745734182" cy="34.00000000000002"></circle><circle class="food-points" fill="#ff7f0e" cx="-30.917106915104476" cy="-17.84999999999998"></circle><circle class="food-points" fill="#2ca02c" cx="3.698433333425007e-15" cy="-60.400000000000006"></circle><circle class="food-points" fill="#2ca02c" cx="25.980762113533157" cy="-15"></circle><circle class="food-points" fill="#2ca02c" cx="25.98076211353316" cy="14.999999999999995"></circle><circle class="food-points" fill="#2ca02c" cx="4.047457671182002e-15" cy="66.1"></circle><circle class="food-points" fill="#2ca02c" cx="-53.95338265577052" cy="31.150000000000023"></circle><circle class="food-points" fill="#2ca02c" cx="-98.38048586991226" cy="-56.799999999999926"></circle><circle class="food-points" fill="#d62728" cx="3.3494089956680113e-15" cy="-54.7"></circle><circle class="food-points" fill="#d62728" cx="27.62621038072359" cy="-15.95"></circle><circle class="food-points" fill="#d62728" cx="25.98076211353316" cy="14.999999999999995"></circle><circle class="food-points" fill="#d62728" cx="4.047457671182002e-15" cy="66.1"></circle><circle class="food-points" fill="#d62728" cx="-49.017037854199216" cy="28.30000000000002"></circle><circle class="food-points" fill="#d62728" cx="-108.25317547305488" cy="-62.49999999999992"></circle><circle class="food-points" fill="#9467bd" cx="1.83697019872103e-15" cy="-30"></circle><circle class="food-points" fill="#9467bd" cx="83.57145146519832" cy="-48.25"></circle><circle class="food-points" fill="#9467bd" cx="25.98076211353316" cy="14.999999999999995"></circle><circle class="food-points" fill="#9467bd" cx="4.861847792614993e-15" cy="79.4"></circle><circle class="food-points" fill="#9467bd" cx="-65.47152052610355" cy="37.800000000000026"></circle><circle class="food-points" fill="#9467bd" cx="-30.917106915104476" cy="-17.84999999999998"></circle></g></g></g></svg>