<svg width="960" height="500">
    <style>

        path {
    fill: none;
}

text {
    font-family: "Avenir Next", "Helvetica Neue", Helvetica, Arial, sans-serif;
    font-size: 12px;
    letter-spacing: 1.5px;
}

.tick-text {
    font-family: Avenir;
    font-size: 10px;
    font-weight: 100;
}


.axis .domain, .guiding-line, .center-polygon {
    stroke: #C7B3A4;
    stroke-width: 1px;
}


.axis-text, .tick text {
    fill: #90715A;
    opacity: 1;
}

.axis-text {
    font-weight: 600;
}

.center-polygon {
    fill: white;
}

.food-polygon {
    fill-opacity: 0.2;
    stroke-opacity: 0.9;
    stroke-width: 1.5;
}

.endpoint {
    fill-opacity: 1;
}

.food-points {
    r: 3;
    opacity: 1;
}
    </style>

    <g transform="translate(30,30)"><g class="spider-chart" transform="translate(450,220)"><g><path class="guiding-line" d="M0,-30L25.980762113533157,-15.000000000000004L25.980762113533164,14.999999999999993L3.67394039744206e-15,30L-25.980762113533153,15.000000000000014L-25.98076211353317,-14.999999999999979L0,-30"></path></g><g><path class="guiding-line" d="M0,-68L58.88972745734183,-34.00000000000001L58.88972745734184,33.999999999999986L8.327598234202001e-15,68L-58.889727457341806,34.00000000000003L-58.889727457341856,-33.99999999999995L0,-68"></path></g><g><path class="guiding-line" d="M0,-106L91.7986928011505,-53.000000000000014L91.79869280115051,52.99999999999998L1.2981256070961945e-14,106L-91.79869280115047,53.00000000000005L-91.79869280115054,-52.99999999999992L0,-106"></path></g><g><path class="guiding-line" d="M0,-144L124.70765814495915,-72.00000000000001L124.7076581449592,71.99999999999997L1.7634913907721887e-14,144L-124.70765814495913,72.00000000000006L-124.70765814495923,-71.9999999999999L0,-144"></path></g><g><path class="guiding-line" d="M0,-182L157.61662348876783,-91.00000000000001L157.61662348876786,90.99999999999996L2.228857174448183e-14,182L-157.61662348876777,91.00000000000009L-157.6166234887679,-90.99999999999987L0,-182"></path></g><g><path class="guiding-line" d="M0,-220L190.5255888325765,-110.00000000000003L190.52558883257655,109.99999999999996L2.694222958124177e-14,220L-190.52558883257643,110.0000000000001L-190.5255888325766,-109.99999999999984L0,-220"></path></g><g class="axis" transform="rotate(180)" fill="none" font-size="10" font-family="sans-serif" text-anchor="end"><path class="domain" stroke="#C7B3A4" d="M0,30.5H0.5V220.5H0"></path><g class="tick" opacity="1" transform="translate(0,30)"><line stroke="#000" x2="0" y1="0.5" y2="0.5"></line><text fill="#000" x="-3" y="0.5" dy="0.32em" class="tick-text" transform="rotate(180), translate(-3, -3)">0</text></g><g class="tick" opacity="1" transform="translate(0,68)"><line stroke="#000" x2="0" y1="0.5" y2="0.5"></line><text fill="#000" x="-3" y="0.5" dy="0.32em" class="tick-text" transform="rotate(180), translate(-3, -3)">20</text></g><g class="tick" opacity="1" transform="translate(0,106)"><line stroke="#000" x2="0" y1="0.5" y2="0.5"></line><text fill="#000" x="-3" y="0.5" dy="0.32em" class="tick-text" transform="rotate(180), translate(-3, -3)">40</text></g><g class="tick" opacity="1" transform="translate(0,144)"><line stroke="#000" x2="0" y1="0.5" y2="0.5"></line><text fill="#000" x="-3" y="0.5" dy="0.32em" class="tick-text" transform="rotate(180), translate(-3, -3)">60</text></g><g class="tick" opacity="1" transform="translate(0,182)"><line stroke="#000" x2="0" y1="0.5" y2="0.5"></line><text fill="#000" x="-3" y="0.5" dy="0.32em" class="tick-text" transform="rotate(180), translate(-3, -3)">80</text></g><g class="tick" opacity="1" transform="translate(0,220)"><line stroke="#000" x2="0" y1="0.5" y2="0.5"></line><text fill="#000" x="-3" y="0.5" dy="0.32em" class="tick-text" transform="rotate(180), translate(-3, -3)">100</text></g><text class="axis-text" y="235" transform="rotate(-180,0,235)" text-anchor="middle">STARCH</text></g><g class="axis" transform="rotate(240)" fill="none" font-size="10" font-family="sans-serif" text-anchor="end"><path class="domain" stroke="#C7B3A4" d="M0,30.5H0.5V220.5H0"></path><text class="axis-text" y="235" transform="rotate(-240,0,235)" text-anchor="start">SUGARS</text></g><g class="axis" transform="rotate(300)" fill="none" font-size="10" font-family="sans-serif" text-anchor="end"><path class="domain" stroke="#C7B3A4" d="M0,30.5H0.5V220.5H0"></path><text class="axis-text" y="235" transform="rotate(-300,0,235)" text-anchor="start">FIBRES</text></g><g class="axis" transform="rotate(0)" fill="none" font-size="10" font-family="sans-serif" text-anchor="end"><path class="domain" stroke="#C7B3A4" d="M0,30.5H0.5V220.5H0"></path><text class="axis-text" y="235" transform="rotate(0,0,235)" text-anchor="middle">FAT</text></g><g class="axis" transform="rotate(59.99999999999997)" fill="none" font-size="10" font-family="sans-serif" text-anchor="end"><path class="domain" stroke="#C7B3A4" d="M0,30.5H0.5V220.5H0"></path><text class="axis-text" y="235" transform="rotate(-59.99999999999997,0,235)" text-anchor="end">PROTEIN</text></g><g class="axis" transform="rotate(119.99999999999994)" fill="none" font-size="10" font-family="sans-serif" text-anchor="end"><path class="domain" stroke="#C7B3A4" d="M0,30.5H0.5V220.5H0"></path><text class="axis-text" y="235" transform="rotate(-119.99999999999994,0,235)" text-anchor="end">WATER</text></g><g id="food-polygons"><polygon class="food-polygon" stroke="#fb9a99" fill="#fb9a99" points="1.83697019872103e-15,-30,182.29834749662433,-105.25,25.98076211353316,14.999999999999995,1.83697019872103e-15,30,-25.980762113533153,15.00000000000001,-32.56255518229491,-18.79999999999998"></polygon><circle class="endpoint" cx="1.83697019872103e-15" cy="-30" r="4" fill="#fb9a99"></circle><circle class="endpoint" cx="182.29834749662433" cy="-105.25" r="4" fill="#fb9a99"></circle><circle class="endpoint" cx="25.98076211353316" cy="14.999999999999995" r="4" fill="#fb9a99"></circle><circle class="endpoint" cx="1.83697019872103e-15" cy="30" r="4" fill="#fb9a99"></circle><circle class="endpoint" cx="-25.980762113533153" cy="15.00000000000001" r="4" fill="#fb9a99"></circle><circle class="endpoint" cx="-32.56255518229491" cy="-18.79999999999998" r="4" fill="#fb9a99"></circle><polygon class="food-polygon" stroke="#cab2d6" fill="#cab2d6" points="8.93379839977994e-15,-145.89999999999998,27.62621038072359,-15.95,50.66248612138966,29.24999999999999,2.3023359823970243e-15,37.6,-45.726141319818346,26.400000000000016,-32.56255518229491,-18.79999999999998"></polygon><circle class="endpoint" cx="8.93379839977994e-15" cy="-145.89999999999998" r="4" fill="#cab2d6"></circle><circle class="endpoint" cx="27.62621038072359" cy="-15.95" r="4" fill="#cab2d6"></circle><circle class="endpoint" cx="50.66248612138966" cy="29.24999999999999" r="4" fill="#cab2d6"></circle><circle class="endpoint" cx="2.3023359823970243e-15" cy="37.6" r="4" fill="#cab2d6"></circle><circle class="endpoint" cx="-45.726141319818346" cy="26.400000000000016" r="4" fill="#cab2d6"></circle><circle class="endpoint" cx="-32.56255518229491" cy="-18.79999999999998" r="4" fill="#cab2d6"></circle><polygon class="food-polygon" stroke="#a6cee3" fill="#a6cee3" points="1.83697019872103e-15,-30,35.85345171667576,-20.7,58.889727457341834,33.999999999999986,9.166481291617938e-15,149.7,-35.85345171667575,20.700000000000014,-29.271658647914037,-16.899999999999977"></polygon><circle class="endpoint" cx="1.83697019872103e-15" cy="-30" r="4" fill="#a6cee3"></circle><circle class="endpoint" cx="35.85345171667576" cy="-20.7" r="4" fill="#a6cee3"></circle><circle class="endpoint" cx="58.889727457341834" cy="33.999999999999986" r="4" fill="#a6cee3"></circle><circle class="endpoint" cx="9.166481291617938e-15" cy="149.7" r="4" fill="#a6cee3"></circle><circle class="endpoint" cx="-35.85345171667575" cy="20.700000000000014" r="4" fill="#a6cee3"></circle><circle class="endpoint" cx="-29.271658647914037" cy="-16.899999999999977" r="4" fill="#a6cee3"></circle><polygon class="food-polygon" stroke="#fdbf6f" fill="#fdbf6f" points="1.83697019872103e-15,-30,25.980762113533157,-15,25.98076211353316,14.999999999999995,2.535018874235021e-15,41.4,-81.92600319800789,47.30000000000003,-119.77131334338793,-69.14999999999992"></polygon><circle class="endpoint" cx="1.83697019872103e-15" cy="-30" r="4" fill="#fdbf6f"></circle><circle class="endpoint" cx="25.980762113533157" cy="-15" r="4" fill="#fdbf6f"></circle><circle class="endpoint" cx="25.98076211353316" cy="14.999999999999995" r="4" fill="#fdbf6f"></circle><circle class="endpoint" cx="2.535018874235021e-15" cy="41.4" r="4" fill="#fdbf6f"></circle><circle class="endpoint" cx="-81.92600319800789" cy="47.30000000000003" r="4" fill="#fdbf6f"></circle><circle class="endpoint" cx="-119.77131334338793" cy="-69.14999999999992" r="4" fill="#fdbf6f"></circle><polygon class="food-polygon" stroke="#e31a1c" fill="#e31a1c" points="1.83697019872103e-15,-30,27.62621038072359,-15.95,29.271658647914027,16.89999999999999,1.83697019872103e-15,30,-25.980762113533153,15.00000000000001,-179.00745096224355,-103.34999999999988"></polygon><circle class="endpoint" cx="1.83697019872103e-15" cy="-30" r="4" fill="#e31a1c"></circle><circle class="endpoint" cx="27.62621038072359" cy="-15.95" r="4" fill="#e31a1c"></circle><circle class="endpoint" cx="29.271658647914027" cy="16.89999999999999" r="4" fill="#e31a1c"></circle><circle class="endpoint" cx="1.83697019872103e-15" cy="30" r="4" fill="#e31a1c"></circle><circle class="endpoint" cx="-25.980762113533153" cy="15.00000000000001" r="4" fill="#e31a1c"></circle><circle class="endpoint" cx="-179.00745096224355" cy="-103.34999999999988" r="4" fill="#e31a1c"></circle></g><g><polygon class="center-polygon" points="1.83697019872103e-15,-30,25.980762113533157,-15,25.98076211353316,14.999999999999995,1.83697019872103e-15,30,-25.980762113533153,15.00000000000001,-25.98076211353317,-14.999999999999982"></polygon></g><g id="polygon-points"><circle class="food-points" fill="#1f77b4" cx="1.83697019872103e-15" cy="-30"></circle><circle class="food-points" fill="#1f77b4" cx="182.29834749662433" cy="-105.25"></circle><circle class="food-points" fill="#1f77b4" cx="25.98076211353316" cy="14.999999999999995"></circle><circle class="food-points" fill="#1f77b4" cx="1.83697019872103e-15" cy="30"></circle><circle class="food-points" fill="#1f77b4" cx="-25.980762113533153" cy="15.00000000000001"></circle><circle class="food-points" fill="#1f77b4" cx="-32.56255518229491" cy="-18.79999999999998"></circle><circle class="food-points" fill="#ff7f0e" cx="8.93379839977994e-15" cy="-145.89999999999998"></circle><circle class="food-points" fill="#ff7f0e" cx="27.62621038072359" cy="-15.95"></circle><circle class="food-points" fill="#ff7f0e" cx="50.66248612138966" cy="29.24999999999999"></circle><circle class="food-points" fill="#ff7f0e" cx="2.3023359823970243e-15" cy="37.6"></circle><circle class="food-points" fill="#ff7f0e" cx="-45.726141319818346" cy="26.400000000000016"></circle><circle class="food-points" fill="#ff7f0e" cx="-32.56255518229491" cy="-18.79999999999998"></circle><circle class="food-points" fill="#2ca02c" cx="1.83697019872103e-15" cy="-30"></circle><circle class="food-points" fill="#2ca02c" cx="35.85345171667576" cy="-20.7"></circle><circle class="food-points" fill="#2ca02c" cx="58.889727457341834" cy="33.999999999999986"></circle><circle class="food-points" fill="#2ca02c" cx="9.166481291617938e-15" cy="149.7"></circle><circle class="food-points" fill="#2ca02c" cx="-35.85345171667575" cy="20.700000000000014"></circle><circle class="food-points" fill="#2ca02c" cx="-29.271658647914037" cy="-16.899999999999977"></circle><circle class="food-points" fill="#d62728" cx="1.83697019872103e-15" cy="-30"></circle><circle class="food-points" fill="#d62728" cx="25.980762113533157" cy="-15"></circle><circle class="food-points" fill="#d62728" cx="25.98076211353316" cy="14.999999999999995"></circle><circle class="food-points" fill="#d62728" cx="2.535018874235021e-15" cy="41.4"></circle><circle class="food-points" fill="#d62728" cx="-81.92600319800789" cy="47.30000000000003"></circle><circle class="food-points" fill="#d62728" cx="-119.77131334338793" cy="-69.14999999999992"></circle><circle class="food-points" fill="#9467bd" cx="1.83697019872103e-15" cy="-30"></circle><circle class="food-points" fill="#9467bd" cx="27.62621038072359" cy="-15.95"></circle><circle class="food-points" fill="#9467bd" cx="29.271658647914027" cy="16.89999999999999"></circle><circle class="food-points" fill="#9467bd" cx="1.83697019872103e-15" cy="30"></circle><circle class="food-points" fill="#9467bd" cx="-25.980762113533153" cy="15.00000000000001"></circle><circle class="food-points" fill="#9467bd" cx="-179.00745096224355" cy="-103.34999999999988"></circle></g></g></g></svg>