<svg width="960" height="500">
<style>
	path {
    fill: none;
}

text {
    font-family: "Avenir Next", "Helvetica Neue", Helvetica, Arial, sans-serif;
    font-size: 12px;
    letter-spacing: 1.5px;
}

.tick text {
    font-size: 10px;
    font-weight: "Normal";
}


.axis .domain, .guiding-line, .center-polygon {
    stroke: #C7B3A4;
    stroke-width: 1px;
}


.axis-text, .tick text {
    fill: #90715A;
    opacity: 1;
}

.axis-text {
    font-weight: 600;
}

.center-polygon {
    fill: white;
}

.food-polygon {
    fill-opacity: 0.2;
    stroke-opacity: 0.9;
    stroke-width: 1.5;
}

.endpoint {
    fill-opacity: 1;
}

.food-points {
    r: 3;
    opacity: 1;
}
</style>
<g transform="translate(30,30)"><g class="spider-chart" transform="translate(450,220)"><g><path class="guiding-line" d="M0,-30L25.980762113533157,-15.000000000000004L25.980762113533164,14.999999999999993L3.67394039744206e-15,30L-25.980762113533153,15.000000000000014L-25.98076211353317,-14.999999999999979L0,-30"></path></g><g><path class="guiding-line" d="M0,-68L58.88972745734183,-34.00000000000001L58.88972745734184,33.999999999999986L8.327598234202001e-15,68L-58.889727457341806,34.00000000000003L-58.889727457341856,-33.99999999999995L0,-68"></path></g><g><path class="guiding-line" d="M0,-106L91.7986928011505,-53.000000000000014L91.79869280115051,52.99999999999998L1.2981256070961945e-14,106L-91.79869280115047,53.00000000000005L-91.79869280115054,-52.99999999999992L0,-106"></path></g><g><path class="guiding-line" d="M0,-144L124.70765814495915,-72.00000000000001L124.7076581449592,71.99999999999997L1.7634913907721887e-14,144L-124.70765814495913,72.00000000000006L-124.70765814495923,-71.9999999999999L0,-144"></path></g><g><path class="guiding-line" d="M0,-182L157.61662348876783,-91.00000000000001L157.61662348876786,90.99999999999996L2.228857174448183e-14,182L-157.61662348876777,91.00000000000009L-157.6166234887679,-90.99999999999987L0,-182"></path></g><g><path class="guiding-line" d="M0,-220L190.5255888325765,-110.00000000000003L190.52558883257655,109.99999999999996L2.694222958124177e-14,220L-190.52558883257643,110.0000000000001L-190.5255888325766,-109.99999999999984L0,-220"></path></g><g class="axis" transform="rotate(180)" fill="none" font-size="10" font-family="sans-serif" text-anchor="end"><path class="domain" stroke="#C7B3A4" d="M0,30.5H0.5V220.5H0"></path><g class="tick" opacity="1" transform="translate(0,30)"><line stroke="#000" x2="0" y1="0.5" y2="0.5"></line><text fill="#000" x="-3" y="0.5" dy="0.32em" class="tick-text" transform="rotate(180), translate(-3, -3)">0</text></g><g class="tick" opacity="1" transform="translate(0,68)"><line stroke="#000" x2="0" y1="0.5" y2="0.5"></line><text fill="#000" x="-3" y="0.5" dy="0.32em" class="tick-text" transform="rotate(180), translate(-3, -3)">20</text></g><g class="tick" opacity="1" transform="translate(0,106)"><line stroke="#000" x2="0" y1="0.5" y2="0.5"></line><text fill="#000" x="-3" y="0.5" dy="0.32em" class="tick-text" transform="rotate(180), translate(-3, -3)">40</text></g><g class="tick" opacity="1" transform="translate(0,144)"><line stroke="#000" x2="0" y1="0.5" y2="0.5"></line><text fill="#000" x="-3" y="0.5" dy="0.32em" class="tick-text" transform="rotate(180), translate(-3, -3)">60</text></g><g class="tick" opacity="1" transform="translate(0,182)"><line stroke="#000" x2="0" y1="0.5" y2="0.5"></line><text fill="#000" x="-3" y="0.5" dy="0.32em" class="tick-text" transform="rotate(180), translate(-3, -3)">80</text></g><g class="tick" opacity="1" transform="translate(0,220)"><line stroke="#000" x2="0" y1="0.5" y2="0.5"></line><text fill="#000" x="-3" y="0.5" dy="0.32em" class="tick-text" transform="rotate(180), translate(-3, -3)">100</text></g><text class="axis-text" y="235" transform="rotate(-180,0,235)" text-anchor="middle">STARCH</text></g><g class="axis" transform="rotate(240)" fill="none" font-size="10" font-family="sans-serif" text-anchor="end"><path class="domain" stroke="#C7B3A4" d="M0,30.5H0.5V220.5H0"></path><text class="axis-text" y="235" transform="rotate(-240,0,235)" text-anchor="start">SUGARS</text></g><g class="axis" transform="rotate(300)" fill="none" font-size="10" font-family="sans-serif" text-anchor="end"><path class="domain" stroke="#C7B3A4" d="M0,30.5H0.5V220.5H0"></path><text class="axis-text" y="235" transform="rotate(-300,0,235)" text-anchor="start">FIBRES</text></g><g class="axis" transform="rotate(0)" fill="none" font-size="10" font-family="sans-serif" text-anchor="end"><path class="domain" stroke="#C7B3A4" d="M0,30.5H0.5V220.5H0"></path><text class="axis-text" y="235" transform="rotate(0,0,235)" text-anchor="middle">FAT</text></g><g class="axis" transform="rotate(59.99999999999997)" fill="none" font-size="10" font-family="sans-serif" text-anchor="end"><path class="domain" stroke="#C7B3A4" d="M0,30.5H0.5V220.5H0"></path><text class="axis-text" y="235" transform="rotate(-59.99999999999997,0,235)" text-anchor="end">PROTEIN</text></g><g class="axis" transform="rotate(119.99999999999994)" fill="none" font-size="10" font-family="sans-serif" text-anchor="end"><path class="domain" stroke="#C7B3A4" d="M0,30.5H0.5V220.5H0"></path><text class="axis-text" y="235" transform="rotate(-119.99999999999994,0,235)" text-anchor="end">WATER</text></g><g id="food-polygons"><polygon class="food-polygon" stroke="#ff7f00" fill="#ff7f00" points="9.748188521212933e-15,-159.20000000000002,25.980762113533157,-15,30.917106915104466,17.849999999999994,1.9533116446400285e-15,31.9,-45.726141319818346,26.400000000000016,-49.01703785419925,-28.299999999999965"></polygon><circle class="endpoint" cx="9.748188521212933e-15" cy="-159.20000000000002" r="4" fill="#ff7f00"></circle><circle class="endpoint" cx="25.980762113533157" cy="-15" r="4" fill="#ff7f00"></circle><circle class="endpoint" cx="30.917106915104466" cy="17.849999999999994" r="4" fill="#ff7f00"></circle><circle class="endpoint" cx="1.9533116446400285e-15" cy="31.9" r="4" fill="#ff7f00"></circle><circle class="endpoint" cx="-45.726141319818346" cy="26.400000000000016" r="4" fill="#ff7f00"></circle><circle class="endpoint" cx="-49.01703785419925" cy="-28.299999999999965" r="4" fill="#ff7f00"></circle><polygon class="food-polygon" stroke="#ff7f00" fill="#ff7f00" points="9.399164183455935e-15,-153.5,25.980762113533157,-15,34.20800344948533,19.749999999999993,2.069653090559027e-15,33.8,-47.371589587008785,27.35000000000002,-49.01703785419925,-28.299999999999965"></polygon><circle class="endpoint" cx="9.399164183455935e-15" cy="-153.5" r="4" fill="#ff7f00"></circle><circle class="endpoint" cx="25.980762113533157" cy="-15" r="4" fill="#ff7f00"></circle><circle class="endpoint" cx="34.20800344948533" cy="19.749999999999993" r="4" fill="#ff7f00"></circle><circle class="endpoint" cx="2.069653090559027e-15" cy="33.8" r="4" fill="#ff7f00"></circle><circle class="endpoint" cx="-47.371589587008785" cy="27.35000000000002" r="4" fill="#ff7f00"></circle><circle class="endpoint" cx="-49.01703785419925" cy="-28.299999999999965" r="4" fill="#ff7f00"></circle><polygon class="food-polygon" stroke="#ff7f00" fill="#ff7f00" points="9.166481291617938e-15,-149.7,25.980762113533157,-15,34.20800344948533,19.749999999999993,2.069653090559027e-15,33.8,-47.371589587008785,27.35000000000002,-49.01703785419925,-28.299999999999965"></polygon><circle class="endpoint" cx="9.166481291617938e-15" cy="-149.7" r="4" fill="#ff7f00"></circle><circle class="endpoint" cx="25.980762113533157" cy="-15" r="4" fill="#ff7f00"></circle><circle class="endpoint" cx="34.20800344948533" cy="19.749999999999993" r="4" fill="#ff7f00"></circle><circle class="endpoint" cx="2.069653090559027e-15" cy="33.8" r="4" fill="#ff7f00"></circle><circle class="endpoint" cx="-47.371589587008785" cy="27.35000000000002" r="4" fill="#ff7f00"></circle><circle class="endpoint" cx="-49.01703785419925" cy="-28.299999999999965" r="4" fill="#ff7f00"></circle><polygon class="food-polygon" stroke="#ff7f00" fill="#ff7f00" points="8.817456953860943e-15,-144,27.62621038072359,-15.95,44.08069305262793,25.449999999999992,2.069653090559027e-15,33.8,-47.371589587008785,27.35000000000002,-45.72614131981838,-26.399999999999967"></polygon><circle class="endpoint" cx="8.817456953860943e-15" cy="-144" r="4" fill="#ff7f00"></circle><circle class="endpoint" cx="27.62621038072359" cy="-15.95" r="4" fill="#ff7f00"></circle><circle class="endpoint" cx="44.08069305262793" cy="25.449999999999992" r="4" fill="#ff7f00"></circle><circle class="endpoint" cx="2.069653090559027e-15" cy="33.8" r="4" fill="#ff7f00"></circle><circle class="endpoint" cx="-47.371589587008785" cy="27.35000000000002" r="4" fill="#ff7f00"></circle><circle class="endpoint" cx="-45.72614131981838" cy="-26.399999999999967" r="4" fill="#ff7f00"></circle><polygon class="food-polygon" stroke="#ff7f00" fill="#ff7f00" points="9.980871413050929e-15,-163,25.980762113533157,-15,30.917106915104466,17.849999999999994,1.9533116446400285e-15,31.9,-44.080693052627915,25.450000000000017,-47.37158958700882,-27.34999999999997"></polygon><circle class="endpoint" cx="9.980871413050929e-15" cy="-163" r="4" fill="#ff7f00"></circle><circle class="endpoint" cx="25.980762113533157" cy="-15" r="4" fill="#ff7f00"></circle><circle class="endpoint" cx="30.917106915104466" cy="17.849999999999994" r="4" fill="#ff7f00"></circle><circle class="endpoint" cx="1.9533116446400285e-15" cy="31.9" r="4" fill="#ff7f00"></circle><circle class="endpoint" cx="-44.080693052627915" cy="25.450000000000017" r="4" fill="#ff7f00"></circle><circle class="endpoint" cx="-47.37158958700882" cy="-27.34999999999997" r="4" fill="#ff7f00"></circle></g><g><polygon class="center-polygon" points="1.83697019872103e-15,-30,25.980762113533157,-15,25.98076211353316,14.999999999999995,1.83697019872103e-15,30,-25.980762113533153,15.00000000000001,-25.98076211353317,-14.999999999999982"></polygon></g><g id="polygon-points"><circle class="food-points" fill="#1f77b4" cx="9.748188521212933e-15" cy="-159.20000000000002"></circle><circle class="food-points" fill="#1f77b4" cx="25.980762113533157" cy="-15"></circle><circle class="food-points" fill="#1f77b4" cx="30.917106915104466" cy="17.849999999999994"></circle><circle class="food-points" fill="#1f77b4" cx="1.9533116446400285e-15" cy="31.9"></circle><circle class="food-points" fill="#1f77b4" cx="-45.726141319818346" cy="26.400000000000016"></circle><circle class="food-points" fill="#1f77b4" cx="-49.01703785419925" cy="-28.299999999999965"></circle><circle class="food-points" fill="#ff7f0e" cx="9.399164183455935e-15" cy="-153.5"></circle><circle class="food-points" fill="#ff7f0e" cx="25.980762113533157" cy="-15"></circle><circle class="food-points" fill="#ff7f0e" cx="34.20800344948533" cy="19.749999999999993"></circle><circle class="food-points" fill="#ff7f0e" cx="2.069653090559027e-15" cy="33.8"></circle><circle class="food-points" fill="#ff7f0e" cx="-47.371589587008785" cy="27.35000000000002"></circle><circle class="food-points" fill="#ff7f0e" cx="-49.01703785419925" cy="-28.299999999999965"></circle><circle class="food-points" fill="#2ca02c" cx="9.166481291617938e-15" cy="-149.7"></circle><circle class="food-points" fill="#2ca02c" cx="25.980762113533157" cy="-15"></circle><circle class="food-points" fill="#2ca02c" cx="34.20800344948533" cy="19.749999999999993"></circle><circle class="food-points" fill="#2ca02c" cx="2.069653090559027e-15" cy="33.8"></circle><circle class="food-points" fill="#2ca02c" cx="-47.371589587008785" cy="27.35000000000002"></circle><circle class="food-points" fill="#2ca02c" cx="-49.01703785419925" cy="-28.299999999999965"></circle><circle class="food-points" fill="#d62728" cx="8.817456953860943e-15" cy="-144"></circle><circle class="food-points" fill="#d62728" cx="27.62621038072359" cy="-15.95"></circle><circle class="food-points" fill="#d62728" cx="44.08069305262793" cy="25.449999999999992"></circle><circle class="food-points" fill="#d62728" cx="2.069653090559027e-15" cy="33.8"></circle><circle class="food-points" fill="#d62728" cx="-47.371589587008785" cy="27.35000000000002"></circle><circle class="food-points" fill="#d62728" cx="-45.72614131981838" cy="-26.399999999999967"></circle><circle class="food-points" fill="#9467bd" cx="9.980871413050929e-15" cy="-163"></circle><circle class="food-points" fill="#9467bd" cx="25.980762113533157" cy="-15"></circle><circle class="food-points" fill="#9467bd" cx="30.917106915104466" cy="17.849999999999994"></circle><circle class="food-points" fill="#9467bd" cx="1.9533116446400285e-15" cy="31.9"></circle><circle class="food-points" fill="#9467bd" cx="-44.080693052627915" cy="25.450000000000017"></circle><circle class="food-points" fill="#9467bd" cx="-47.37158958700882" cy="-27.34999999999997"></circle></g></g></g></svg>