<svg width="960" height="500">
<style>
path {
    fill: none;
}

text {
    font-family: "Avenir Next", "Helvetica Neue", Helvetica, Arial, sans-serif;
    font-size: 12px;
    letter-spacing: 1.5px;
}

.tick text {
    font-size: 10px;
    font-weight: "Normal";
}


.axis .domain, .guiding-line, .center-polygon {
    stroke: #C7B3A4;
    stroke-width: 1px;
}


.axis-text, .tick text {
    fill: #90715A;
    opacity: 1;
}

.axis-text {
    font-weight: 600;
}

.center-polygon {
    fill: white;
}

.food-polygon {
    fill-opacity: 0.2;
    stroke-opacity: 0.9;
    stroke-width: 1.5;
}

.endpoint {
    fill-opacity: 1;
}

.food-points {
    r: 3;
    opacity: 1;
}
</style>

	<g transform="translate(30,30)"><g class="spider-chart" transform="translate(450,220)"><g><path class="guiding-line" d="M0,-30L25.980762113533157,-15.000000000000004L25.980762113533164,14.999999999999993L3.67394039744206e-15,30L-25.980762113533153,15.000000000000014L-25.98076211353317,-14.999999999999979L0,-30"></path></g><g><path class="guiding-line" d="M0,-68L58.88972745734183,-34.00000000000001L58.88972745734184,33.999999999999986L8.327598234202001e-15,68L-58.889727457341806,34.00000000000003L-58.889727457341856,-33.99999999999995L0,-68"></path></g><g><path class="guiding-line" d="M0,-106L91.7986928011505,-53.000000000000014L91.79869280115051,52.99999999999998L1.2981256070961945e-14,106L-91.79869280115047,53.00000000000005L-91.79869280115054,-52.99999999999992L0,-106"></path></g><g><path class="guiding-line" d="M0,-144L124.70765814495915,-72.00000000000001L124.7076581449592,71.99999999999997L1.7634913907721887e-14,144L-124.70765814495913,72.00000000000006L-124.70765814495923,-71.9999999999999L0,-144"></path></g><g><path class="guiding-line" d="M0,-182L157.61662348876783,-91.00000000000001L157.61662348876786,90.99999999999996L2.228857174448183e-14,182L-157.61662348876777,91.00000000000009L-157.6166234887679,-90.99999999999987L0,-182"></path></g><g><path class="guiding-line" d="M0,-220L190.5255888325765,-110.00000000000003L190.52558883257655,109.99999999999996L2.694222958124177e-14,220L-190.52558883257643,110.0000000000001L-190.5255888325766,-109.99999999999984L0,-220"></path></g><g class="axis" transform="rotate(180)" fill="none" font-size="10" font-family="sans-serif" text-anchor="end"><path class="domain" stroke="#C7B3A4" d="M0,30.5H0.5V220.5H0"></path><g class="tick" opacity="1" transform="translate(0,30)"><line stroke="#000" x2="0" y1="0.5" y2="0.5"></line><text fill="#000" x="-3" y="0.5" dy="0.32em" class="tick-text" transform="rotate(180), translate(-3, -3)">0</text></g><g class="tick" opacity="1" transform="translate(0,68)"><line stroke="#000" x2="0" y1="0.5" y2="0.5"></line><text fill="#000" x="-3" y="0.5" dy="0.32em" class="tick-text" transform="rotate(180), translate(-3, -3)">20</text></g><g class="tick" opacity="1" transform="translate(0,106)"><line stroke="#000" x2="0" y1="0.5" y2="0.5"></line><text fill="#000" x="-3" y="0.5" dy="0.32em" class="tick-text" transform="rotate(180), translate(-3, -3)">40</text></g><g class="tick" opacity="1" transform="translate(0,144)"><line stroke="#000" x2="0" y1="0.5" y2="0.5"></line><text fill="#000" x="-3" y="0.5" dy="0.32em" class="tick-text" transform="rotate(180), translate(-3, -3)">60</text></g><g class="tick" opacity="1" transform="translate(0,182)"><line stroke="#000" x2="0" y1="0.5" y2="0.5"></line><text fill="#000" x="-3" y="0.5" dy="0.32em" class="tick-text" transform="rotate(180), translate(-3, -3)">80</text></g><g class="tick" opacity="1" transform="translate(0,220)"><line stroke="#000" x2="0" y1="0.5" y2="0.5"></line><text fill="#000" x="-3" y="0.5" dy="0.32em" class="tick-text" transform="rotate(180), translate(-3, -3)">100</text></g><text class="axis-text" y="235" transform="rotate(-180,0,235)" text-anchor="middle">STARCH</text></g><g class="axis" transform="rotate(240)" fill="none" font-size="10" font-family="sans-serif" text-anchor="end"><path class="domain" stroke="#C7B3A4" d="M0,30.5H0.5V220.5H0"></path><text class="axis-text" y="235" transform="rotate(-240,0,235)" text-anchor="start">SUGARS</text></g><g class="axis" transform="rotate(300)" fill="none" font-size="10" font-family="sans-serif" text-anchor="end"><path class="domain" stroke="#C7B3A4" d="M0,30.5H0.5V220.5H0"></path><text class="axis-text" y="235" transform="rotate(-300,0,235)" text-anchor="start">FIBRES</text></g><g class="axis" transform="rotate(0)" fill="none" font-size="10" font-family="sans-serif" text-anchor="end"><path class="domain" stroke="#C7B3A4" d="M0,30.5H0.5V220.5H0"></path><text class="axis-text" y="235" transform="rotate(0,0,235)" text-anchor="middle">FAT</text></g><g class="axis" transform="rotate(59.99999999999997)" fill="none" font-size="10" font-family="sans-serif" text-anchor="end"><path class="domain" stroke="#C7B3A4" d="M0,30.5H0.5V220.5H0"></path><text class="axis-text" y="235" transform="rotate(-59.99999999999997,0,235)" text-anchor="end">PROTEIN</text></g><g class="axis" transform="rotate(119.99999999999994)" fill="none" font-size="10" font-family="sans-serif" text-anchor="end"><path class="domain" stroke="#C7B3A4" d="M0,30.5H0.5V220.5H0"></path><text class="axis-text" y="235" transform="rotate(-119.99999999999994,0,235)" text-anchor="end">WATER</text></g><g id="food-polygons"><polygon class="food-polygon" stroke="#b2df8a" fill="#b2df8a" points="3.0003846579110155e-15,-49,40.78979651824705,-23.549999999999997,67.116968793294,38.749999999999986,2.069653090559027e-15,33.8,-58.88972745734182,34.00000000000002,-35.85345171667578,-20.699999999999974"></polygon><circle class="endpoint" cx="3.0003846579110155e-15" cy="-49" r="4" fill="#b2df8a"></circle><circle class="endpoint" cx="40.78979651824705" cy="-23.549999999999997" r="4" fill="#b2df8a"></circle><circle class="endpoint" cx="67.116968793294" cy="38.749999999999986" r="4" fill="#b2df8a"></circle><circle class="endpoint" cx="2.069653090559027e-15" cy="33.8" r="4" fill="#b2df8a"></circle><circle class="endpoint" cx="-58.88972745734182" cy="34.00000000000002" r="4" fill="#b2df8a"></circle><circle class="endpoint" cx="-35.85345171667578" cy="-20.699999999999974" r="4" fill="#b2df8a"></circle><polygon class="food-polygon" stroke="#fb9a99" fill="#fb9a99" points="2.7677017660730185e-15,-45.2,29.271658647914023,-16.9,78.63510666362704,45.39999999999999,4.745506346695993e-15,77.5,-57.24427919015138,33.05000000000002,-34.20800344948534,-19.749999999999975"></polygon><circle class="endpoint" cx="2.7677017660730185e-15" cy="-45.2" r="4" fill="#fb9a99"></circle><circle class="endpoint" cx="29.271658647914023" cy="-16.9" r="4" fill="#fb9a99"></circle><circle class="endpoint" cx="78.63510666362704" cy="45.39999999999999" r="4" fill="#fb9a99"></circle><circle class="endpoint" cx="4.745506346695993e-15" cy="77.5" r="4" fill="#fb9a99"></circle><circle class="endpoint" cx="-57.24427919015138" cy="33.05000000000002" r="4" fill="#fb9a99"></circle><circle class="endpoint" cx="-34.20800344948534" cy="-19.749999999999975" r="4" fill="#fb9a99"></circle><polygon class="food-polygon" stroke="#cab2d6" fill="#cab2d6" points="7.188676710994964e-15,-117.4,29.271658647914023,-16.9,30.917106915104466,17.849999999999994,5.9089208058859796e-15,96.5,-32.562555182294886,18.800000000000015,-32.56255518229491,-18.79999999999998"></polygon><circle class="endpoint" cx="7.188676710994964e-15" cy="-117.4" r="4" fill="#cab2d6"></circle><circle class="endpoint" cx="29.271658647914023" cy="-16.9" r="4" fill="#cab2d6"></circle><circle class="endpoint" cx="30.917106915104466" cy="17.849999999999994" r="4" fill="#cab2d6"></circle><circle class="endpoint" cx="5.9089208058859796e-15" cy="96.5" r="4" fill="#cab2d6"></circle><circle class="endpoint" cx="-32.562555182294886" cy="18.800000000000015" r="4" fill="#cab2d6"></circle><circle class="endpoint" cx="-32.56255518229491" cy="-18.79999999999998" r="4" fill="#cab2d6"></circle><polygon class="food-polygon" stroke="#33a02c" fill="#33a02c" points="4.512823454857996e-15,-73.7,30.917106915104462,-17.85,40.78979651824706,23.54999999999999,2.3023359823970243e-15,37.6,-103.31683067148352,59.65000000000004,-35.85345171667578,-20.699999999999974"></polygon><circle class="endpoint" cx="4.512823454857996e-15" cy="-73.7" r="4" fill="#33a02c"></circle><circle class="endpoint" cx="30.917106915104462" cy="-17.85" r="4" fill="#33a02c"></circle><circle class="endpoint" cx="40.78979651824706" cy="23.54999999999999" r="4" fill="#33a02c"></circle><circle class="endpoint" cx="2.3023359823970243e-15" cy="37.6" r="4" fill="#33a02c"></circle><circle class="endpoint" cx="-103.31683067148352" cy="59.65000000000004" r="4" fill="#33a02c"></circle><circle class="endpoint" cx="-35.85345171667578" cy="-20.699999999999974" r="4" fill="#33a02c"></circle><polygon class="food-polygon" stroke="#1f78b4" fill="#1f78b4" points="1.83697019872103e-15,-30,83.57145146519832,-48.25,25.98076211353316,14.999999999999995,4.861847792614993e-15,79.4,-65.47152052610355,37.800000000000026,-30.917106915104476,-17.84999999999998"></polygon><circle class="endpoint" cx="1.83697019872103e-15" cy="-30" r="4" fill="#1f78b4"></circle><circle class="endpoint" cx="83.57145146519832" cy="-48.25" r="4" fill="#1f78b4"></circle><circle class="endpoint" cx="25.98076211353316" cy="14.999999999999995" r="4" fill="#1f78b4"></circle><circle class="endpoint" cx="4.861847792614993e-15" cy="79.4" r="4" fill="#1f78b4"></circle><circle class="endpoint" cx="-65.47152052610355" cy="37.800000000000026" r="4" fill="#1f78b4"></circle><circle class="endpoint" cx="-30.917106915104476" cy="-17.84999999999998" r="4" fill="#1f78b4"></circle><polygon class="food-polygon" stroke="#ff7f00" fill="#ff7f00" points="7.537701048751958e-15,-123.1,27.62621038072359,-15.95,44.08069305262793,25.449999999999992,1.9533116446400285e-15,31.9,-65.47152052610355,37.800000000000026,-42.43524478543751,-24.49999999999997"></polygon><circle class="endpoint" cx="7.537701048751958e-15" cy="-123.1" r="4" fill="#ff7f00"></circle><circle class="endpoint" cx="27.62621038072359" cy="-15.95" r="4" fill="#ff7f00"></circle><circle class="endpoint" cx="44.08069305262793" cy="25.449999999999992" r="4" fill="#ff7f00"></circle><circle class="endpoint" cx="1.9533116446400285e-15" cy="31.9" r="4" fill="#ff7f00"></circle><circle class="endpoint" cx="-65.47152052610355" cy="37.800000000000026" r="4" fill="#ff7f00"></circle><circle class="endpoint" cx="-42.43524478543751" cy="-24.49999999999997" r="4" fill="#ff7f00"></circle></g><g><polygon class="center-polygon" points="1.83697019872103e-15,-30,25.980762113533157,-15,25.98076211353316,14.999999999999995,1.83697019872103e-15,30,-25.980762113533153,15.00000000000001,-25.98076211353317,-14.999999999999982"></polygon></g><g id="polygon-points"><circle class="food-points" fill="#1f77b4" cx="3.0003846579110155e-15" cy="-49"></circle><circle class="food-points" fill="#1f77b4" cx="40.78979651824705" cy="-23.549999999999997"></circle><circle class="food-points" fill="#1f77b4" cx="67.116968793294" cy="38.749999999999986"></circle><circle class="food-points" fill="#1f77b4" cx="2.069653090559027e-15" cy="33.8"></circle><circle class="food-points" fill="#1f77b4" cx="-58.88972745734182" cy="34.00000000000002"></circle><circle class="food-points" fill="#1f77b4" cx="-35.85345171667578" cy="-20.699999999999974"></circle><circle class="food-points" fill="#ff7f0e" cx="2.7677017660730185e-15" cy="-45.2"></circle><circle class="food-points" fill="#ff7f0e" cx="29.271658647914023" cy="-16.9"></circle><circle class="food-points" fill="#ff7f0e" cx="78.63510666362704" cy="45.39999999999999"></circle><circle class="food-points" fill="#ff7f0e" cx="4.745506346695993e-15" cy="77.5"></circle><circle class="food-points" fill="#ff7f0e" cx="-57.24427919015138" cy="33.05000000000002"></circle><circle class="food-points" fill="#ff7f0e" cx="-34.20800344948534" cy="-19.749999999999975"></circle><circle class="food-points" fill="#2ca02c" cx="7.188676710994964e-15" cy="-117.4"></circle><circle class="food-points" fill="#2ca02c" cx="29.271658647914023" cy="-16.9"></circle><circle class="food-points" fill="#2ca02c" cx="30.917106915104466" cy="17.849999999999994"></circle><circle class="food-points" fill="#2ca02c" cx="5.9089208058859796e-15" cy="96.5"></circle><circle class="food-points" fill="#2ca02c" cx="-32.562555182294886" cy="18.800000000000015"></circle><circle class="food-points" fill="#2ca02c" cx="-32.56255518229491" cy="-18.79999999999998"></circle><circle class="food-points" fill="#d62728" cx="4.512823454857996e-15" cy="-73.7"></circle><circle class="food-points" fill="#d62728" cx="30.917106915104462" cy="-17.85"></circle><circle class="food-points" fill="#d62728" cx="40.78979651824706" cy="23.54999999999999"></circle><circle class="food-points" fill="#d62728" cx="2.3023359823970243e-15" cy="37.6"></circle><circle class="food-points" fill="#d62728" cx="-103.31683067148352" cy="59.65000000000004"></circle><circle class="food-points" fill="#d62728" cx="-35.85345171667578" cy="-20.699999999999974"></circle><circle class="food-points" fill="#9467bd" cx="1.83697019872103e-15" cy="-30"></circle><circle class="food-points" fill="#9467bd" cx="83.57145146519832" cy="-48.25"></circle><circle class="food-points" fill="#9467bd" cx="25.98076211353316" cy="14.999999999999995"></circle><circle class="food-points" fill="#9467bd" cx="4.861847792614993e-15" cy="79.4"></circle><circle class="food-points" fill="#9467bd" cx="-65.47152052610355" cy="37.800000000000026"></circle><circle class="food-points" fill="#9467bd" cx="-30.917106915104476" cy="-17.84999999999998"></circle><circle class="food-points" fill="#8c564b" cx="7.537701048751958e-15" cy="-123.1"></circle><circle class="food-points" fill="#8c564b" cx="27.62621038072359" cy="-15.95"></circle><circle class="food-points" fill="#8c564b" cx="44.08069305262793" cy="25.449999999999992"></circle><circle class="food-points" fill="#8c564b" cx="1.9533116446400285e-15" cy="31.9"></circle><circle class="food-points" fill="#8c564b" cx="-65.47152052610355" cy="37.800000000000026"></circle><circle class="food-points" fill="#8c564b" cx="-42.43524478543751" cy="-24.49999999999997"></circle></g></g></g></svg>